<?xml version="1.0" encoding="utf-8"?>
<!-- Generator: Adobe Illustrator 18.1.0, SVG Export Plug-In . SVG Version: 6.00 Build 0)  -->
<svg version="1.1" id="Layer_1" xmlns="http://www.w3.org/2000/svg" xmlns:xlink="http://www.w3.org/1999/xlink" x="0px" y="0px"
	 width="256.3px" height="256.3px" viewBox="-177 268.7 256.3 256.3" enable-background="new -177 268.7 256.3 256.3"
	 xml:space="preserve">
<g>
	<path fill="#512200" stroke="#512200" stroke-width="3.8677" stroke-miterlimit="10" d="M33,378.4c2.7,10.2,4.2,21.1,4.2,32.4
		c0,1.3,0,2.6-0.1,3.9l13.3,5.2l11-9.1l8.4,9.9l-16.5,13.6l-17.2-6.9c-2,15.2-6.6,29.3-13.2,41.6l2.4-3.2l12.9,7.4l12.2-7.4l6.8,11
		l-18.3,11.1l-20.2-11.8c-15.8,24.5-40.3,40.3-67.8,40.3c-27.4,0-51.9-15.7-67.7-40.1l-19.9,11.6l-18.3-11.1l6.8-11l12.2,7.4
		l12.9-7.4l0.9,1.2c-6.1-11.8-10.3-25.1-12.2-39.4l-16.7,6.7l-16.3-13.5l8.4-9.9l11,9.1l12.7-5c0-1.4-0.1-2.8-0.1-4.1
		c0-11.3,1.5-22.2,4.2-32.4l-21.5-0.8l-9.4-19.1l11.8-5.6l6.3,12.6l14.9,0.7l0.3,4.3c8.9-26.4,26.3-47.4,48.1-58
		c0.4-8.1,7.1-14.6,15.4-14.6h36.1c8.6,0,15.5,6.9,15.5,15.3c0,0.4-0.1,0.7-0.1,1.1c20.5,11.2,36.7,32,45,57.6l0.4-5.8l14.9-0.7
		l6.3-12.8l11.8,5.6l-9.4,19.1L33,378.4z"/>
	<polygon fill="#512200" stroke="#512200" stroke-width="3.8677" stroke-miterlimit="10" points="-5.5,284.5 -7.2,289 -9.8,290.2 
		-15.3,291.7 -19.9,294.5 -26.4,298 -26.4,294.5 -19.1,289.3 -13.8,287.7 -9.1,284.5 -6.4,279.1 -1.1,277.3 -2.6,282.3 	"/>
	<polygon fill="#512200" stroke="#512200" stroke-width="3.8677" stroke-miterlimit="10" points="-79.3,291.7 -84.8,290.2 
		-87.5,289 -89.2,284.5 -92.1,282.3 -93.5,277.3 -88.3,279.1 -85.6,284.5 -80.9,287.7 -75.5,289.3 -68.2,294.5 -68.2,298 
		-74.7,294.5 	"/>
</g>
</svg>
