<svg xmlns="http://www.w3.org/2000/svg" width="256.3" height="256.3" viewBox="-177 268.7 256.3 256.3" enable-background="new -177 268.7 256.3 256.3"><g fill="#512200" stroke="#512200" stroke-width="3.868" stroke-miterlimit="10"><path d="M33 378.4c2.7 10.2 4.2 21.1 4.2 32.4 0 1.3 0 2.6-.1 3.9l13.3 5.2 11-9.1 8.4 9.9-16.5 13.6-17.2-6.9c-2 15.2-6.6 29.3-13.2 41.6l2.4-3.2 12.9 7.4 12.2-7.4 6.8 11-18.3 11.1-20.2-11.8c-15.8 24.5-40.3 40.3-67.8 40.3-27.4 0-51.9-15.7-67.7-40.1l-19.9 11.6-18.3-11.1 6.8-11 12.2 7.4 12.9-7.4.9 1.2c-6.1-11.8-10.3-25.1-12.2-39.4l-16.7 6.7-16.3-13.5 8.4-9.9 11 9.1 12.7-5c0-1.4-.1-2.8-.1-4.1 0-11.3 1.5-22.2 4.2-32.4l-21.5-.8-9.4-19.1 11.8-5.6 6.3 12.6 14.9.7.3 4.3c8.9-26.4 26.3-47.4 48.1-58 .4-8.1 7.1-14.6 15.4-14.6h36.1c8.6 0 15.5 6.9 15.5 15.3l-.1 1.1c20.5 11.2 36.7 32 45 57.6l.4-5.8 14.9-.7 6.3-12.8 11.8 5.6-9.4 19.1-22.2 1zM-5.5 284.5l-1.7 4.5-2.6 1.2-5.5 1.5-4.6 2.8-6.5 3.5v-3.5l7.3-5.2 5.3-1.6 4.7-3.2 2.7-5.4 5.3-1.8-1.5 5zM-79.3 291.7l-5.5-1.5-2.7-1.2-1.7-4.5-2.9-2.2-1.4-5 5.2 1.8 2.7 5.4 4.7 3.2 5.4 1.6 7.3 5.2v3.5l-6.5-3.5z"/></g></svg>